<?xml version="1.0" encoding="UTF-8"?><svg id="Layer_1" xmlns="http://www.w3.org/2000/svg" viewBox="0 0 69 70"><defs><style>.cls-1{fill:none;}.cls-2{fill:#fefefe;}.cls-3{fill:#1e1e1e;fill-rule:evenodd;}.cls-4{fill:#999;}</style></defs><path class="cls-3" d="M11.99,8.03C5.99,13,1.68,19.92.03,27.83c2.42,1.43,4.04,4.07,4.04,7.09s-1.64,5.68-4.07,7.11c1.56,7.66,5.62,14.4,11.29,19.35,1.38-1.05,3.1-1.67,4.97-1.67,4.55,0,8.24,3.69,8.24,8.24,0,.22,0,.44-.03.66,3.12.91,6.41,1.4,9.83,1.4s6.71-.49,9.83-1.4c-.02-.22-.03-.44-.03-.66,0-4.55,3.69-8.24,8.24-8.24,1.87,0,3.59.62,4.97,1.67,5.67-4.95,9.73-11.7,11.29-19.35-2.44-1.43-4.07-4.08-4.07-7.11s1.62-5.65,4.04-7.09c-1.65-7.91-5.96-14.83-11.96-19.8-1.25.76-2.71,1.19-4.27,1.19-4.41,0-8.01-3.47-8.23-7.83C41,.48,37.71,0,34.3,0s-6.7.49-9.81,1.39c-.21,4.36-3.81,7.83-8.23,7.83-1.56,0-3.03-.44-4.27-1.19Z"/><circle class="cls-2" cx="34.25" cy="35" r="6.25"/><circle class="cls-2" cx="16.26" cy="23.31" r="8.24"/><circle class="cls-2" cx="52.33" cy="24.46" r="8.24"/><circle class="cls-4" cx="34.38" cy="13.84" r="8.24"/><circle class="cls-2" cx="34.38" cy="56" r="8.24"/><circle class="cls-2" cx="52.33" cy="45.62" r="8.24"/><circle class="cls-2" cx="16.26" cy="45.62" r="8.24"/><rect id="_Slice_" class="cls-1" width="68.6" height="70"/></svg>